<svg width="593" height="259" viewBox="0 0 593 259" fill="none" xmlns="http://www.w3.org/2000/svg">
<g filter="url(#filter0_d_275_77)">
<g filter="url(#filter1_d_275_77)">
<path d="M24.656 233V181.736H4.592V167.048H61.04V181.736H41.072V233H24.656ZM79.7218 182.216C92.4898 182.216 102.09 190.28 102.09 203.528V233H86.4418V228.776C82.9858 232.232 77.8018 234.152 72.7138 234.152C62.1538 234.152 53.8018 227.72 53.8018 218.312C53.8018 208.616 63.1138 201.8 74.8258 201.8C78.4738 201.8 82.6018 202.664 86.4418 204.2V203.528C86.4418 198.248 82.4098 194.408 75.5938 194.408C70.8898 194.408 67.3378 195.848 63.1138 198.056L58.0258 187.88C64.9378 184.424 72.0418 182.216 79.7218 182.216ZM76.6498 224.168C81.4498 224.168 85.7698 221.864 86.4418 218.12V212.84C83.9458 211.88 80.4898 211.208 77.1298 211.208C72.7138 211.208 69.2578 213.992 69.2578 217.832C69.2578 221.672 72.3298 224.168 76.6498 224.168ZM109 233V165.896H125.32V233H109ZM164.497 205.064L182.929 233H164.497L153.745 215.432L148.753 221.192V233H132.433V165.896H148.753V202.952L164.401 183.368H182.833L164.497 205.064ZM193.014 177.32C188.214 177.32 184.374 173.384 184.374 168.68C184.374 164.168 188.214 160.232 193.014 160.232C197.718 160.232 201.462 164.168 201.462 168.68C201.462 173.384 197.718 177.32 193.014 177.32ZM184.758 233V183.368H200.982V233H184.758ZM227.102 182.024V183.368H237.374V196.328H227.102V233H211.55V196.328H205.022V183.368H211.55V179.816C211.55 170.504 218.078 163.88 227.39 163.88C231.614 163.88 236.51 165.8 239.486 168.584L236.222 178.28C235.262 177.32 233.438 176.648 231.614 176.648C229.022 176.648 227.102 178.856 227.102 182.024ZM254.719 250.28C250.207 250.28 244.543 248.84 240.799 246.728L244.159 235.976C246.751 237.416 249.439 238.472 250.975 238.472C253.375 238.472 255.487 237.704 256.351 236.36L257.695 233.576L237.343 183.368H254.047L265.663 216.104L276.607 183.368H293.119L273.631 234.44C269.695 244.616 262.879 250.28 254.719 250.28ZM296.912 233V167.048H321.008C343.664 167.048 359.6 180.68 359.6 199.976C359.6 219.272 343.664 233 321.008 233H296.912ZM313.328 218.12H323.504C334.736 218.12 342.8 210.536 342.8 199.976C342.8 189.416 334.736 181.928 323.504 181.928H313.328V218.12ZM390.106 234.152C375.13 234.152 362.554 222.248 362.554 208.136C362.554 194.024 375.13 182.216 390.106 182.216C405.082 182.216 417.658 194.024 417.658 208.136C417.658 222.248 405.082 234.152 390.106 234.152ZM390.106 220.616C396.73 220.616 402.298 214.856 402.298 208.136C402.298 201.416 396.73 195.752 390.106 195.752C383.482 195.752 377.914 201.416 377.914 208.136C377.914 214.856 383.482 220.616 390.106 220.616ZM447.107 234.152C432.227 234.152 419.651 222.248 419.651 208.136C419.651 194.024 432.323 182.216 447.299 182.216C455.747 182.216 462.563 185.672 467.363 191.048L456.611 199.976C454.403 197.576 450.659 195.752 447.203 195.752C440.771 195.752 435.299 201.416 435.299 208.04C435.299 214.856 440.771 220.616 447.203 220.616C450.755 220.616 454.595 218.792 456.899 216.2L467.651 225.032C462.755 230.6 455.843 234.152 447.107 234.152ZM490.384 234.152C482.032 234.152 473.392 231.368 467.344 226.664L473.872 216.2C478.48 219.464 484.816 221.864 490.768 221.864C494.32 221.864 496.336 220.712 496.336 218.792C496.336 216.392 493.072 215.432 488.176 214.28C478.576 212.072 469.648 209.576 469.552 198.824C469.552 189.32 477.328 182.216 489.616 182.216C497.008 182.216 504.208 184.808 509.776 188.552L503.824 199.208C499.504 196.424 494.128 194.312 489.616 194.312C486.64 194.312 484.528 195.656 484.528 197.192C484.528 199.4 486.64 199.88 492.496 201.416C501.328 203.528 511.216 206.408 511.216 217.736C511.216 227.72 503.152 234.152 490.384 234.152Z" fill="url(#paint0_angular_275_77)" shape-rendering="crispEdges"/>
</g>
<mask id="path-2-inside-1_275_77" fill="white">
<path fill-rule="evenodd" clip-rule="evenodd" d="M312 2.48401e-07C311.081 -0.000406532 310.17 0.498797 309.321 1.46912C308.472 2.43945 307.7 3.86188 307.05 5.65515C306.4 7.44843 305.884 9.57743 305.533 11.9205C305.181 14.2636 305 16.7749 305 19.311V142.689C305 147.811 305.738 152.722 307.05 156.344C308.363 159.965 310.143 162 312 162C313.857 162 315.637 159.965 316.95 156.344C318.262 152.722 319 147.811 319 142.689V19.311C319 16.7749 318.819 14.2636 318.467 11.9205C318.116 9.57741 317.6 7.44843 316.95 5.65515C316.3 3.86188 315.528 2.43947 314.679 1.46914C313.83 0.498819 312.919 -0.00040275 312 2.48401e-07ZM250.161 26C249.221 25.9999 248.289 26.1569 247.42 26.4622C246.552 26.7675 245.762 27.215 245.097 27.7792C244.432 28.3434 243.905 29.0132 243.545 29.7503C243.185 30.4875 243 31.2776 243 32.0755V171.811C243 173.423 243.754 174.968 245.097 176.107C246.44 177.247 248.262 177.887 250.161 177.887C252.06 177.887 253.882 177.247 255.225 176.107C256.568 174.968 257.322 173.423 257.322 171.811V32.0755C257.322 31.2776 257.137 30.4875 256.777 29.7503C256.417 29.0132 255.89 28.3434 255.225 27.7792C254.56 27.215 253.77 26.7675 252.902 26.4622C252.033 26.1569 251.101 25.9999 250.161 26ZM215.42 61.46C216.289 61.1562 217.221 60.9999 218.161 61C219.101 60.9999 220.033 61.1562 220.902 61.46C221.77 61.7639 222.56 62.2093 223.225 62.7708C223.89 63.3324 224.417 63.999 224.777 64.7328C225.137 65.4665 225.322 66.2528 225.322 67.047V152.041C225.322 153.645 224.568 155.183 223.225 156.317C221.882 157.451 220.06 158.088 218.161 158.088C216.262 158.088 214.44 157.451 213.097 156.317C211.754 155.183 211 153.645 211 152.041V67.047C211 66.2529 211.185 65.4665 211.545 64.7328C211.905 63.999 212.432 63.3324 213.097 62.7708C213.762 62.2093 214.552 61.7639 215.42 61.46ZM185.42 101.459C186.289 101.156 187.221 101 188.161 101C189.101 101 190.033 101.156 190.902 101.459C191.77 101.762 192.56 102.207 193.225 102.767C193.89 103.328 194.417 103.993 194.777 104.725C195.137 105.458 195.322 106.243 195.322 107.035V145.594C195.322 146.386 195.137 147.171 194.777 147.903C194.417 148.636 193.89 149.301 193.225 149.861C192.56 150.422 191.77 150.866 190.901 151.17C190.033 151.473 189.101 151.629 188.161 151.629C187.221 151.629 186.289 151.473 185.421 151.17C184.552 150.866 183.762 150.422 183.097 149.861C182.432 149.301 181.905 148.636 181.545 147.903C181.185 147.171 181 146.386 181 145.594V107.035C181 106.243 181.185 105.458 181.545 104.725C181.905 103.993 182.432 103.328 183.097 102.767C183.762 102.207 184.552 101.762 185.42 101.459ZM277.321 71.507C278.17 71.1721 279.081 70.9999 280 71C280.919 70.9999 281.83 71.1721 282.679 71.507C283.528 71.8419 284.3 72.3328 284.95 72.9516C285.6 73.5705 286.116 74.3052 286.467 75.1138C286.819 75.9224 287 76.7891 287 77.6643V171.336C287 173.103 286.262 174.798 284.95 176.048C283.637 177.298 281.857 178 280 178C278.143 178 276.363 177.298 275.05 176.048C273.738 174.798 273 173.103 273 171.336V77.6643C273 76.7891 273.181 75.9224 273.533 75.1138C273.884 74.3052 274.4 73.5705 275.05 72.9516C275.7 72.3327 276.472 71.8419 277.321 71.507ZM341.386 69.46C342.255 69.1562 343.186 68.9999 344.126 69C345.067 68.9999 345.998 69.1562 346.867 69.46C347.736 69.7639 348.525 70.2093 349.19 70.7708C349.855 71.3324 350.383 71.999 350.743 72.7328C351.102 73.4665 351.287 74.2528 351.287 75.047V160.041C351.287 161.645 350.533 163.183 349.19 164.317C347.847 165.451 346.026 166.088 344.126 166.088C342.227 166.088 340.406 165.451 339.063 164.317C337.72 163.183 336.965 161.645 336.965 160.041V75.047C336.965 74.2529 337.15 73.4665 337.51 72.7328C337.87 71.999 338.397 71.3324 339.062 70.7708C339.727 70.2093 340.517 69.7639 341.386 69.46ZM376 100C375.081 99.9998 374.17 100.24 373.321 100.707C372.472 101.175 371.7 101.859 371.05 102.723C370.4 103.586 369.884 104.611 369.533 105.74C369.181 106.868 369 108.077 369 109.298V168.702C369 171.168 369.738 173.533 371.05 175.277C372.363 177.02 374.143 178 376 178C377.857 178 379.637 177.02 380.95 175.277C382.263 173.533 383 171.168 383 168.702V109.298C383 108.077 382.819 106.868 382.467 105.74C382.116 104.611 381.6 103.586 380.95 102.723C380.3 101.859 379.528 101.175 378.679 100.707C377.83 100.24 376.919 99.9998 376 100ZM406 27C402.134 27 399 30.134 399 34V171C399 174.866 402.134 178 406 178C409.866 178 413 174.866 413 171V34C413 30.134 409.866 27 406 27ZM165 91C164.081 90.9998 163.17 91.2432 162.321 91.7164C161.472 92.1896 160.7 92.8833 160.05 93.7578C159.4 94.6323 158.884 95.6705 158.533 96.8131C158.181 97.9557 158 99.1804 158 100.417V160.583C158 161.82 158.181 163.044 158.533 164.187C158.885 165.329 159.4 166.367 160.05 167.242C160.7 168.116 161.472 168.81 162.321 169.283C163.17 169.756 164.081 170 165 170C165.919 170 166.83 169.756 167.679 169.283C168.528 168.81 169.3 168.116 169.95 167.242C170.6 166.367 171.115 165.329 171.467 164.187C171.819 163.044 172 161.82 172 160.583V100.417C172 99.1804 171.819 97.9557 171.467 96.8131C171.116 95.6705 170.6 94.6323 169.95 93.7578C169.3 92.8833 168.528 92.1896 167.679 91.7164C166.83 91.2432 165.919 90.9998 165 91ZM437.608 91.7799C438.457 91.2648 439.368 90.9998 440.287 91C441.206 90.9998 442.117 91.2648 442.966 91.7799C443.815 92.295 444.587 93.0501 445.237 94.0021C445.887 94.9541 446.403 96.0843 446.755 97.3282C447.106 98.572 447.287 99.9052 447.287 101.252V166.748C447.287 169.467 446.55 172.075 445.237 173.997C443.924 175.92 442.144 177 440.287 177C438.431 177 436.65 175.92 435.337 173.997C434.025 172.075 433.287 169.467 433.287 166.748V101.252C433.287 99.9052 433.468 98.5721 433.82 97.3282C434.171 96.0843 434.687 94.9541 435.337 94.0021C435.987 93.0501 436.759 92.295 437.608 91.7799Z"/>
</mask>
<path d="M309.321 1.46912L310.826 2.78641L310.826 2.78641L309.321 1.46912ZM312 2.48401e-07L311.999 2L312.001 2L312 2.48401e-07ZM307.05 5.65515L308.93 6.33673L308.93 6.33673L307.05 5.65515ZM305.533 11.9205L303.555 11.6236L303.555 11.6236L305.533 11.9205ZM305 19.311L307 19.311L307 19.3109L305 19.311ZM307.05 156.344L308.931 155.662L308.931 155.662L307.05 156.344ZM316.95 156.344L315.069 155.662L315.069 155.662L316.95 156.344ZM319 19.311L317 19.3109V19.311H319ZM318.467 11.9205L320.445 11.6236L320.445 11.6236L318.467 11.9205ZM316.95 5.65515L315.07 6.33673L315.07 6.33673L316.95 5.65515ZM247.42 26.4622L248.083 28.3491L248.083 28.3491L247.42 26.4622ZM250.161 26L250.161 28L250.161 28L250.161 26ZM245.097 27.7792L243.803 26.2541L243.803 26.2541L245.097 27.7792ZM243.545 29.7503L241.747 28.873L241.747 28.8731L243.545 29.7503ZM243 32.0755L245 32.0755L245 32.0751L243 32.0755ZM255.225 176.107L253.931 174.582L253.931 174.582L255.225 176.107ZM257.322 32.0755L255.322 32.0751V32.0755H257.322ZM256.777 29.7503L254.98 30.6276L254.98 30.6276L256.777 29.7503ZM255.225 27.7792L253.931 29.3043L253.931 29.3043L255.225 27.7792ZM218.161 61L218.161 63L218.161 63L218.161 61ZM215.42 61.46L214.76 59.5721L214.76 59.5721L215.42 61.46ZM220.902 61.46L220.241 63.3479L220.241 63.3479L220.902 61.46ZM223.225 62.7708L221.935 64.2989L221.935 64.2989L223.225 62.7708ZM224.777 64.7328L222.982 65.6134L222.982 65.6134L224.777 64.7328ZM225.322 67.047L223.322 67.0466V67.047H225.322ZM223.225 156.317L224.515 157.845L224.515 157.845L223.225 156.317ZM213.097 156.317L211.807 157.845L211.807 157.845L213.097 156.317ZM211 67.047L213 67.047L213 67.0466L211 67.047ZM211.545 64.7328L209.749 63.8521L209.749 63.8521L211.545 64.7328ZM213.097 62.7708L211.807 61.2428L211.807 61.2428L213.097 62.7708ZM188.161 101L188.161 103L188.161 103L188.161 101ZM185.42 101.459L186.079 103.347L186.079 103.347L185.42 101.459ZM190.902 101.459L190.243 103.347L190.243 103.347L190.902 101.459ZM195.322 107.035L193.322 107.035V107.035H195.322ZM195.322 145.594L193.322 145.594L193.322 145.594L195.322 145.594ZM194.777 147.903L192.982 147.021L192.982 147.021L194.777 147.903ZM193.225 149.861L194.513 151.391L194.513 151.391L193.225 149.861ZM190.901 151.17L191.561 153.058L191.561 153.058L190.901 151.17ZM188.161 151.629L188.161 149.629L188.161 149.629L188.161 151.629ZM183.097 149.861L184.386 148.332L184.386 148.332L183.097 149.861ZM181.545 147.903L183.34 147.021L183.34 147.021L181.545 147.903ZM181 107.035L183 107.035L183 107.035L181 107.035ZM181.545 104.725L183.34 105.607L183.34 105.607L181.545 104.725ZM183.097 102.767L181.808 101.238L181.808 101.238L183.097 102.767ZM280 71L280 73L280 73L280 71ZM277.321 71.507L276.587 69.6464L276.587 69.6464L277.321 71.507ZM282.679 71.507L281.945 73.3676L281.945 73.3676L282.679 71.507ZM287 77.6643L285 77.664V77.6643H287ZM273 77.6643L275 77.6643L275 77.664L273 77.6643ZM275.05 72.9516L276.429 74.4001L276.429 74.4001L275.05 72.9516ZM344.126 69L344.126 71L344.127 71L344.126 69ZM341.386 69.46L342.046 71.3479L342.046 71.3479L341.386 69.46ZM346.867 69.46L346.207 71.3479L346.207 71.3479L346.867 69.46ZM349.19 70.7708L350.481 69.2428L350.481 69.2428L349.19 70.7708ZM350.743 72.7328L348.947 73.6134L348.947 73.6134L350.743 72.7328ZM351.287 75.047L349.287 75.0466V75.047H351.287ZM349.19 164.317L347.9 162.789L347.9 162.789L349.19 164.317ZM336.965 75.047L338.965 75.047L338.965 75.0466L336.965 75.047ZM337.51 72.7328L339.306 73.6134L339.306 73.6134L337.51 72.7328ZM339.062 70.7708L340.353 72.2989L340.353 72.2989L339.062 70.7708ZM376 100L376 102L376 102L376 100ZM371.05 102.723L372.648 103.926L372.648 103.926L371.05 102.723ZM369 109.298L371 109.298L371 109.298L369 109.298ZM371.05 175.277L372.648 174.074L372.648 174.074L371.05 175.277ZM380.95 175.277L379.352 174.074L379.352 174.074L380.95 175.277ZM383 109.298L381 109.298V109.298H383ZM382.467 105.74L380.558 106.335L380.558 106.335L382.467 105.74ZM162.321 91.7164L161.348 89.9693L161.348 89.9693L162.321 91.7164ZM165 91L165 93L165 93L165 91ZM158.533 96.8131L160.444 97.4015L158.533 96.8131ZM158 100.417L160 100.417L160 100.417L158 100.417ZM158.533 164.187L156.621 164.775L156.621 164.775L158.533 164.187ZM162.321 169.283L161.348 171.03L161.348 171.03L162.321 169.283ZM167.679 169.283L168.652 171.03L168.652 171.03L167.679 169.283ZM171.467 164.187L173.379 164.775L173.379 164.775L171.467 164.187ZM172 100.417L170 100.417V100.417H172ZM440.287 91L440.287 93L440.288 93L440.287 91ZM445.237 94.0021L443.585 95.1299L443.586 95.13L445.237 94.0021ZM446.755 97.3282L448.679 96.784L448.679 96.7839L446.755 97.3282ZM447.287 101.252L445.287 101.251V101.252H447.287ZM445.237 173.997L446.889 175.125L446.889 175.125L445.237 173.997ZM435.337 173.997L436.989 172.87L436.989 172.87L435.337 173.997ZM433.287 101.252L435.287 101.252L435.287 101.251L433.287 101.252ZM433.82 97.3282L431.895 96.784L431.895 96.784L433.82 97.3282ZM435.337 94.0021L433.685 92.8743L433.685 92.8743L435.337 94.0021ZM310.826 2.78641C311.454 2.06901 311.86 1.99994 311.999 2L312.001 -2C310.301 -2.00075 308.887 -1.07141 307.816 0.151835L310.826 2.78641ZM308.93 6.33673C309.532 4.67534 310.199 3.50305 310.826 2.78641L307.816 0.151835C306.745 1.37584 305.867 3.04842 305.17 4.97358L308.93 6.33673ZM307.51 12.2174C307.847 9.9754 308.335 7.97967 308.93 6.33673L305.17 4.97358C304.465 6.91719 303.922 9.17947 303.555 11.6236L307.51 12.2174ZM307 19.3109C307 16.8673 307.174 14.4556 307.51 12.2174L303.555 11.6236C303.187 14.0716 303 16.6825 303 19.3111L307 19.3109ZM307 142.689V19.311H303V142.689H307ZM308.931 155.662C307.718 152.318 307 147.65 307 142.689H303C303 147.971 303.757 153.127 305.17 157.025L308.931 155.662ZM312 160C311.857 160 311.451 159.927 310.826 159.213C310.206 158.504 309.538 157.339 308.931 155.662L305.17 157.025C305.875 158.971 306.754 160.634 307.816 161.847C308.874 163.056 310.286 164 312 164V160ZM315.069 155.662C314.462 157.339 313.794 158.504 313.174 159.213C312.549 159.927 312.143 160 312 160V164C313.713 164 315.126 163.056 316.184 161.847C317.246 160.634 318.125 158.971 318.83 157.025L315.069 155.662ZM317 142.689C317 147.65 316.282 152.318 315.069 155.662L318.83 157.025C320.243 153.127 321 147.971 321 142.689H317ZM317 19.311V142.689H321V19.311H317ZM316.49 12.2174C316.826 14.4556 317 16.8673 317 19.3109L321 19.3111C321 16.6825 320.813 14.0716 320.445 11.6236L316.49 12.2174ZM315.07 6.33673C315.665 7.97967 316.153 9.97539 316.49 12.2174L320.445 11.6236C320.078 9.17944 319.535 6.91718 318.83 4.97358L315.07 6.33673ZM313.174 2.78643C313.801 3.50307 314.468 4.67534 315.07 6.33673L318.83 4.97358C318.132 3.04842 317.255 1.37586 316.184 0.151857L313.174 2.78643ZM312.001 2C312.14 1.99994 312.546 2.06902 313.174 2.78643L316.184 0.151857C315.113 -1.07139 313.699 -2.00074 311.999 -2L312.001 2ZM248.083 28.3491C248.735 28.1203 249.441 27.9999 250.161 28L250.161 24C249 23.9998 247.844 24.1936 246.757 24.5753L248.083 28.3491ZM246.391 29.3043C246.859 28.907 247.432 28.578 248.083 28.3491L246.757 24.5753C245.671 24.957 244.665 25.523 243.803 26.2541L246.391 29.3043ZM245.342 30.6277C245.573 30.1543 245.923 29.7011 246.391 29.3043L243.803 26.2541C242.941 26.9856 242.236 27.872 241.747 28.873L245.342 30.6277ZM245 32.0751C245 31.5901 245.112 31.0994 245.342 30.6276L241.747 28.8731C241.258 29.8756 241 30.9651 241 32.0758L245 32.0751ZM245 171.811V32.0755H241V171.811H245ZM246.391 174.582C245.449 173.783 245 172.776 245 171.811H241C241 174.069 242.06 176.153 243.804 177.632L246.391 174.582ZM250.161 175.887C248.696 175.887 247.343 175.39 246.391 174.582L243.804 177.632C245.537 179.103 247.828 179.887 250.161 179.887V175.887ZM253.931 174.582C252.979 175.39 251.626 175.887 250.161 175.887V179.887C252.494 179.887 254.785 179.103 256.518 177.632L253.931 174.582ZM255.322 171.811C255.322 172.776 254.873 173.783 253.931 174.582L256.518 177.632C258.262 176.153 259.322 174.069 259.322 171.811H255.322ZM255.322 32.0755V171.811H259.322V32.0755H255.322ZM254.98 30.6276C255.21 31.0994 255.322 31.5901 255.322 32.0751L259.322 32.0758C259.322 30.9651 259.064 29.8756 258.575 28.873L254.98 30.6276ZM253.931 29.3043C254.399 29.7011 254.749 30.1543 254.98 30.6276L258.575 28.873C258.086 27.872 257.381 26.9856 256.519 26.2541L253.931 29.3043ZM252.239 28.3491C252.89 28.578 253.463 28.907 253.931 29.3043L256.519 26.2541C255.657 25.523 254.651 24.957 253.565 24.5753L252.239 28.3491ZM250.161 28C250.881 27.9999 251.587 28.1203 252.239 28.3491L253.565 24.5753C252.478 24.1935 251.322 23.9998 250.161 24L250.161 28ZM218.161 59C217.001 58.9998 215.846 59.1924 214.76 59.5721L216.081 63.3479C216.733 63.1199 217.44 62.9999 218.161 63L218.161 59ZM221.562 59.5721C220.476 59.1924 219.321 58.9998 218.161 59L218.161 63C218.882 62.9999 219.589 63.1199 220.241 63.3479L221.562 59.5721ZM224.515 61.2428C223.653 60.515 222.647 59.9518 221.562 59.5721L220.241 63.3479C220.893 63.5759 221.466 63.9036 221.935 64.2989L224.515 61.2428ZM226.573 63.8521C226.083 62.854 225.378 61.971 224.515 61.2428L221.935 64.2989C222.402 64.6937 222.751 65.144 222.982 65.6134L226.573 63.8521ZM227.322 67.0474C227.322 65.9388 227.063 64.8518 226.573 63.8521L222.982 65.6134C223.211 66.0811 223.322 66.5669 223.322 67.0466L227.322 67.0474ZM227.322 152.041V67.047H223.322V152.041H227.322ZM224.515 157.845C226.259 156.373 227.322 154.295 227.322 152.041H223.322C223.322 152.995 222.876 153.994 221.934 154.789L224.515 157.845ZM218.161 160.088C220.492 160.088 222.781 159.31 224.515 157.845L221.934 154.789C220.982 155.593 219.629 156.088 218.161 156.088V160.088ZM211.807 157.845C213.541 159.31 215.83 160.088 218.161 160.088V156.088C216.693 156.088 215.34 155.593 214.388 154.789L211.807 157.845ZM209 152.041C209 154.295 210.063 156.373 211.807 157.845L214.388 154.789C213.446 153.994 213 152.995 213 152.041H209ZM209 67.047V152.041H213V67.047H209ZM209.749 63.8521C209.259 64.8518 209 65.9388 209 67.0474L213 67.0466C213 66.5669 213.111 66.0811 213.34 65.6134L209.749 63.8521ZM211.807 61.2428C210.944 61.971 210.239 62.854 209.749 63.8521L213.34 65.6134C213.571 65.144 213.92 64.6937 214.387 64.2989L211.807 61.2428ZM214.76 59.5721C213.675 59.9518 212.669 60.515 211.807 61.2428L214.387 64.2989C214.856 63.9036 215.429 63.576 216.081 63.3479L214.76 59.5721ZM188.161 99C187.001 98.9998 185.847 99.192 184.761 99.5708L186.079 103.347C186.732 103.12 187.44 103 188.161 103L188.161 99ZM191.561 99.5709C190.475 99.192 189.321 98.9998 188.161 99L188.161 103C188.882 103 189.59 103.12 190.243 103.347L191.561 99.5709ZM194.514 101.238C193.652 100.512 192.646 99.9497 191.561 99.5708L190.243 103.347C190.895 103.575 191.468 103.902 191.936 104.297L194.514 101.238ZM196.572 103.843C196.082 102.847 195.376 101.965 194.514 101.238L191.936 104.297C192.404 104.691 192.752 105.14 192.982 105.607L196.572 103.843ZM197.322 107.036C197.322 105.928 197.063 104.842 196.572 103.843L192.982 105.607C193.211 106.074 193.322 106.557 193.322 107.035L197.322 107.036ZM197.322 145.594V107.035H193.322V145.594H197.322ZM196.572 148.785C197.063 147.787 197.322 146.701 197.322 145.594L193.322 145.594C193.322 146.071 193.211 146.555 192.982 147.021L196.572 148.785ZM194.513 151.391C195.376 150.664 196.082 149.782 196.572 148.785L192.982 147.021C192.752 147.489 192.403 147.938 191.936 148.332L194.513 151.391ZM191.561 153.058C192.646 152.679 193.652 152.117 194.513 151.391L191.936 148.332C191.468 148.726 190.895 149.054 190.242 149.281L191.561 153.058ZM188.161 153.629C189.321 153.629 190.475 153.437 191.561 153.058L190.242 149.281C189.59 149.509 188.882 149.629 188.161 149.629L188.161 153.629ZM184.761 153.058C185.847 153.437 187.001 153.629 188.161 153.629L188.161 149.629C187.44 149.629 186.732 149.509 186.08 149.281L184.761 153.058ZM181.809 151.391C182.67 152.117 183.676 152.679 184.761 153.058L186.08 149.281C185.427 149.054 184.854 148.726 184.386 148.332L181.809 151.391ZM179.75 148.785C180.24 149.782 180.946 150.664 181.809 151.391L184.386 148.332C183.919 147.938 183.57 147.489 183.34 147.021L179.75 148.785ZM179 145.594C179 146.701 179.259 147.787 179.75 148.785L183.34 147.021C183.111 146.555 183 146.071 183 145.594H179ZM179 107.035V145.594H183V107.035H179ZM179.75 103.843C179.259 104.842 179 105.928 179 107.036L183 107.035C183 106.557 183.111 106.074 183.34 105.607L179.75 103.843ZM181.808 101.238C180.946 101.965 180.24 102.847 179.75 103.843L183.34 105.607C183.57 105.14 183.918 104.691 184.386 104.297L181.808 101.238ZM184.761 99.5708C183.676 99.9497 182.67 100.512 181.808 101.238L184.386 104.297C184.854 103.902 185.427 103.575 186.079 103.347L184.761 99.5708ZM280 69C278.832 68.9998 277.672 69.2187 276.587 69.6464L278.055 73.3676C278.669 73.1255 279.33 72.9999 280 73L280 69ZM283.413 69.6464C282.328 69.2187 281.168 68.9998 280 69L280 73C280.67 72.9999 281.331 73.1255 281.945 73.3676L283.413 69.6464ZM286.329 71.5031C285.489 70.7035 284.497 70.0741 283.413 69.6464L281.945 73.3676C282.559 73.6096 283.111 73.962 283.571 74.4001L286.329 71.5031ZM288.301 74.3161C287.841 73.2578 287.169 72.3029 286.329 71.5031L283.571 74.4001C284.031 74.8381 284.39 75.3526 284.633 75.9116L288.301 74.3161ZM289 77.6647C289 76.5127 288.762 75.3745 288.301 74.3161L284.633 75.9116C284.876 76.4703 285 77.0655 285 77.664L289 77.6647ZM289 171.336V77.6643H285V171.336H289ZM286.329 177.497C288.027 175.88 289 173.666 289 171.336H285C285 172.54 284.498 173.716 283.571 174.6L286.329 177.497ZM280 180C282.356 180 284.634 179.11 286.329 177.497L283.571 174.6C282.64 175.486 281.357 176 280 176V180ZM273.671 177.497C275.366 179.11 277.644 180 280 180V176C278.643 176 277.36 175.486 276.429 174.6L273.671 177.497ZM271 171.336C271 173.666 271.973 175.88 273.671 177.497L276.429 174.6C275.502 173.716 275 172.54 275 171.336H271ZM271 77.6643V171.336H275V77.6643H271ZM271.699 74.3161C271.238 75.3745 271 76.5127 271 77.6647L275 77.664C275 77.0655 275.124 76.4703 275.367 75.9116L271.699 74.3161ZM273.671 71.5031C272.831 72.3029 272.159 73.2579 271.699 74.3161L275.367 75.9116C275.61 75.3526 275.969 74.838 276.429 74.4001L273.671 71.5031ZM276.587 69.6464C275.503 70.0741 274.511 70.7035 273.671 71.5031L276.429 74.4001C276.889 73.962 277.441 73.6097 278.055 73.3676L276.587 69.6464ZM344.127 67C342.966 66.9998 341.811 67.1924 340.726 67.5722L342.046 71.3479C342.698 71.1199 343.406 70.9999 344.126 71L344.127 67ZM347.527 67.5722C346.441 67.1925 345.286 66.9998 344.126 67L344.127 71C344.847 70.9999 345.555 71.1199 346.207 71.3479L347.527 67.5722ZM350.481 69.2428C349.619 68.515 348.613 67.9518 347.527 67.5721L346.207 71.3479C346.859 71.576 347.432 71.9036 347.9 72.2989L350.481 69.2428ZM352.538 71.8521C352.049 70.8541 351.343 69.971 350.481 69.2428L347.9 72.2989C348.367 72.6937 348.717 73.144 348.947 73.6134L352.538 71.8521ZM353.287 75.0474C353.288 73.9388 353.028 72.8518 352.538 71.8521L348.947 73.6134C349.176 74.0811 349.287 74.5669 349.287 75.0466L353.287 75.0474ZM353.287 160.041V75.047H349.287V160.041H353.287ZM350.48 165.845C352.224 164.373 353.287 162.295 353.287 160.041H349.287C349.287 160.995 348.841 161.994 347.9 162.789L350.48 165.845ZM344.126 168.088C346.457 168.088 348.746 167.31 350.48 165.845L347.9 162.789C346.948 163.593 345.594 164.088 344.126 164.088V168.088ZM337.772 165.845C339.506 167.31 341.796 168.088 344.126 168.088V164.088C342.659 164.088 341.305 163.593 340.353 162.789L337.772 165.845ZM334.965 160.041C334.965 162.295 336.028 164.373 337.772 165.845L340.353 162.789C339.411 161.994 338.965 160.995 338.965 160.041H334.965ZM334.965 75.047V160.041H338.965V75.047H334.965ZM335.714 71.8521C335.224 72.8518 334.965 73.9388 334.965 75.0474L338.965 75.0466C338.965 74.5669 339.076 74.0811 339.306 73.6134L335.714 71.8521ZM337.772 69.2428C336.91 69.971 336.204 70.8541 335.714 71.8521L339.306 73.6134C339.536 73.144 339.885 72.6937 340.353 72.2989L337.772 69.2428ZM340.726 67.5721C339.64 67.9518 338.634 68.515 337.772 69.2428L340.353 72.2989C340.821 71.9036 341.394 71.576 342.046 71.3479L340.726 67.5721ZM374.285 102.46C374.856 102.146 375.436 102 376 102L376 98C374.725 97.9997 373.485 98.3344 372.357 98.955L374.285 102.46ZM372.648 103.926C373.147 103.262 373.71 102.776 374.285 102.46L372.357 98.955C371.233 99.5734 370.253 100.457 369.452 101.52L372.648 103.926ZM371.442 106.335C371.732 105.405 372.148 104.59 372.648 103.926L369.452 101.52C368.652 102.583 368.037 103.818 367.623 105.144L371.442 106.335ZM371 109.298C371 108.272 371.152 107.264 371.442 106.335L367.623 105.144C367.209 106.472 367 107.882 367 109.298L371 109.298ZM371 168.702V109.298H367V168.702H371ZM372.648 174.074C371.63 172.721 371 170.793 371 168.702H367C367 171.543 367.845 174.345 369.452 176.48L372.648 174.074ZM376 176C374.887 176 373.658 175.415 372.648 174.074L369.452 176.48C371.068 178.626 373.4 180 376 180V176ZM379.352 174.074C378.342 175.415 377.113 176 376 176V180C378.6 180 380.932 178.626 382.548 176.48L379.352 174.074ZM381 168.702C381 170.793 380.37 172.721 379.352 174.074L382.548 176.48C384.155 174.345 385 171.543 385 168.702H381ZM381 109.298V168.702H385V109.298H381ZM380.558 106.335C380.848 107.264 381 108.272 381 109.298L385 109.298C385 107.882 384.791 106.472 384.377 105.144L380.558 106.335ZM379.352 103.926C379.852 104.59 380.268 105.405 380.558 106.335L384.377 105.144C383.963 103.818 383.348 102.583 382.548 101.52L379.352 103.926ZM377.715 102.46C378.29 102.776 378.853 103.262 379.352 103.926L382.548 101.52C381.747 100.457 380.767 99.5734 379.643 98.955L377.715 102.46ZM376 102C376.564 102 377.144 102.146 377.715 102.46L379.643 98.955C378.515 98.3344 377.275 97.9997 376 98L376 102ZM401 34C401 31.2386 403.239 29 406 29V25C401.029 25 397 29.0294 397 34H401ZM401 171V34H397V171H401ZM406 176C403.239 176 401 173.761 401 171H397C397 175.971 401.029 180 406 180V176ZM411 171C411 173.761 408.761 176 406 176V180C410.971 180 415 175.971 415 171H411ZM411 34V171H415V34H411ZM406 29C408.761 29 411 31.2386 411 34H415C415 29.0294 410.971 25 406 25V29ZM163.294 93.4636C163.864 93.1464 164.441 92.9999 165 93L165 89C163.721 88.9997 162.477 89.3401 161.348 89.9693L163.294 93.4636ZM161.655 94.9509C162.157 94.2762 162.721 93.7832 163.294 93.4636L161.348 89.9693C160.223 90.5961 159.243 91.4903 158.445 92.5646L161.655 94.9509ZM160.444 97.4015C160.735 96.4553 161.153 95.6258 161.655 94.9509L158.445 92.5646C157.646 93.6387 157.033 94.8856 156.621 96.2247L160.444 97.4015ZM160 100.417C160 99.3727 160.153 98.3469 160.444 97.4015L156.621 96.2247C156.209 97.5645 156 98.988 156 100.417L160 100.417ZM160 160.583V100.417H156V160.583H160ZM160.444 163.598C160.153 162.653 160 161.627 160 160.583H156C156 162.012 156.209 163.435 156.621 164.775L160.444 163.598ZM161.655 166.049C161.154 165.374 160.736 164.544 160.444 163.598L156.621 164.775C157.034 166.114 157.647 167.361 158.445 168.435L161.655 166.049ZM163.295 167.536C162.721 167.216 162.157 166.723 161.655 166.049L158.445 168.435C159.244 169.509 160.223 170.403 161.348 171.03L163.295 167.536ZM165 168C164.441 168 163.864 167.853 163.295 167.536L161.348 171.03C162.477 171.659 163.72 172 165 172V168ZM166.705 167.536C166.136 167.853 165.559 168 165 168V172C166.28 172 167.523 171.659 168.652 171.03L166.705 167.536ZM168.345 166.049C167.843 166.723 167.279 167.216 166.705 167.536L168.652 171.03C169.777 170.403 170.756 169.509 171.555 168.435L168.345 166.049ZM169.556 163.598C169.264 164.544 168.846 165.374 168.345 166.049L171.555 168.435C172.353 167.361 172.966 166.114 173.379 164.775L169.556 163.598ZM170 160.583C170 161.627 169.847 162.653 169.556 163.598L173.379 164.775C173.791 163.435 174 162.012 174 160.583H170ZM170 100.417V160.583H174V100.417H170ZM169.556 97.4015C169.847 98.3469 170 99.3727 170 100.417L174 100.417C174 98.988 173.791 97.5645 173.379 96.2247L169.556 97.4015ZM168.345 94.9509C168.847 95.6258 169.265 96.4553 169.556 97.4015L173.379 96.2247C172.967 94.8856 172.354 93.6387 171.555 92.5646L168.345 94.9509ZM166.706 93.4636C167.279 93.7831 167.843 94.2762 168.345 94.9509L171.555 92.5646C170.757 91.4903 169.777 90.5961 168.652 89.9693L166.706 93.4636ZM165 93C165.559 92.9999 166.136 93.1464 166.706 93.4636L168.652 89.9693C167.523 89.3401 166.279 88.9997 165 89L165 93ZM440.288 89C438.973 88.9997 437.707 89.3808 436.571 90.0698L438.645 93.49C439.208 93.1488 439.763 92.9999 440.287 93L440.288 89ZM444.003 90.0698C442.867 89.3808 441.601 88.9997 440.287 89L440.288 93C440.812 92.9999 441.366 93.1488 441.929 93.49L444.003 90.0698ZM446.889 92.8743C446.104 91.7242 445.133 90.7549 444.003 90.0698L441.929 93.49C442.498 93.8352 443.071 94.3761 443.585 95.1299L446.889 92.8743ZM448.679 96.7839C448.276 95.3571 447.675 94.025 446.889 92.8743L443.586 95.13C444.1 95.8832 444.53 96.8115 444.83 97.8724L448.679 96.7839ZM449.287 101.252C449.287 99.729 449.083 98.2122 448.679 96.784L444.83 97.8724C445.13 98.9319 445.287 100.081 445.287 101.251L449.287 101.252ZM449.287 166.748V101.252H445.287V166.748H449.287ZM446.889 175.125C448.464 172.817 449.287 169.8 449.287 166.748H445.287C445.287 169.134 444.635 171.332 443.585 172.87L446.889 175.125ZM440.287 179C442.974 179 445.31 177.437 446.889 175.125L443.585 172.87C442.538 174.403 441.314 175 440.287 175V179ZM433.686 175.125C435.264 177.437 437.601 179 440.287 179V175C439.26 175 438.036 174.403 436.989 172.87L433.686 175.125ZM431.287 166.748C431.287 169.8 432.11 172.817 433.686 175.125L436.989 172.87C435.939 171.332 435.287 169.134 435.287 166.748H431.287ZM431.287 101.252V166.748H435.287V101.252H431.287ZM431.895 96.784C431.491 98.2122 431.287 99.729 431.287 101.252L435.287 101.251C435.287 100.081 435.445 98.9319 435.744 97.8724L431.895 96.784ZM433.685 92.8743C432.9 94.025 432.299 95.3571 431.895 96.784L435.744 97.8724C436.044 96.8116 436.474 95.8832 436.989 95.1299L433.685 92.8743ZM436.571 90.0698C435.442 90.7549 434.471 91.7242 433.685 92.8743L436.989 95.1299C437.503 94.3761 438.076 93.8352 438.645 93.49L436.571 90.0698Z" fill="url(#paint1_linear_275_77)" mask="url(#path-2-inside-1_275_77)"/>
</g>
<defs>
<filter id="filter0_d_275_77" x="0.591797" y="0" width="514.624" height="258.279" filterUnits="userSpaceOnUse" color-interpolation-filters="sRGB">
<feFlood flood-opacity="0" result="BackgroundImageFix"/>
<feColorMatrix in="SourceAlpha" type="matrix" values="0 0 0 0 0 0 0 0 0 0 0 0 0 0 0 0 0 0 127 0" result="hardAlpha"/>
<feOffset dy="4"/>
<feGaussianBlur stdDeviation="2"/>
<feComposite in2="hardAlpha" operator="out"/>
<feColorMatrix type="matrix" values="0 0 0 0 0 0 0 0 0 0 0 0 0 0 0 0 0 0 0.25 0"/>
<feBlend mode="normal" in2="BackgroundImageFix" result="effect1_dropShadow_275_77"/>
<feBlend mode="normal" in="SourceGraphic" in2="effect1_dropShadow_275_77" result="shape"/>
</filter>
<filter id="filter1_d_275_77" x="4.5918" y="160.232" width="506.624" height="90.0469" filterUnits="userSpaceOnUse" color-interpolation-filters="sRGB">
<feFlood flood-opacity="0" result="BackgroundImageFix"/>
<feColorMatrix in="SourceAlpha" type="matrix" values="0 0 0 0 0 0 0 0 0 0 0 0 0 0 0 0 0 0 127 0" result="hardAlpha"/>
<feOffset/>
<feComposite in2="hardAlpha" operator="out"/>
<feColorMatrix type="matrix" values="0 0 0 0 1 0 0 0 0 1 0 0 0 0 1 0 0 0 0.85 0"/>
<feBlend mode="normal" in2="BackgroundImageFix" result="effect1_dropShadow_275_77"/>
<feBlend mode="normal" in="SourceGraphic" in2="effect1_dropShadow_275_77" result="shape"/>
</filter>
<radialGradient id="paint0_angular_275_77" cx="0" cy="0" r="1" gradientUnits="userSpaceOnUse" gradientTransform="translate(265.75 290.25) rotate(103.402) scale(136.98 963.755)">
<stop offset="0.601659" stop-color="white"/>
<stop offset="1" stop-color="white" stop-opacity="0"/>
</radialGradient>
<linearGradient id="paint1_linear_275_77" x1="302.644" y1="0" x2="332" y2="262" gradientUnits="userSpaceOnUse">
<stop stop-color="white"/>
<stop offset="1" stop-color="white" stop-opacity="0"/>
</linearGradient>
</defs>
</svg>
